# xmcd CD database file
# Copyright (C) 1993-1998 Ti Kan
# 
# Track frame offsets:
#     150
#     11125
#     23750
#     34242
#     45400
#     55900
#     67187
#     81200
#     92525
#     102232
#     113875
#     124362
#     136050
#     147050
#     159975
#     169050
#     181875
#     192300
# 
# Disc length: 2713 seconds
# 
# Revision: 1
# Processed by: cddbd v1.4b41PL1 Copyright (c) Steve Scherf et al.
# Submitted via: DiscPlay 4.0.4
# 
DISCID=ef0a9712
DTITLE=Jim Reeves - Jim Reeves Greatest Vol 2
DYEAR=1900
DGENRE=
TTITLE0=Make The World Go Away
TTITLE1=I Can't Stop Love You
TTITLE2=The Wreck Of The Number Nine
TTITLE3=Moonlight And Roses
TTITLE4=It's Only A Paper Moon
TTITLE5=Am I That Easy To Forget
TTITLE6=I Fall to Pieces
TTITLE7=I'm A Fool To Care The Storm
TTITLE8=The Storm
TTITLE9=Welcome To My World
TTITLE10=Scarlet Ribbons
TTITLE11=Missing You
TTITLE12=How Can I Write On Paper
TTITLE13=Golden Memories And Silver Tears
TTITLE14=I'm Crying Again
TTITLE15=Four Walls
TTITLE16=Am I Losing You
TTITLE17=Anna Marie
EXTD=
EXTT0=
EXTT1=
EXTT2=
EXTT3=
EXTT4=
EXTT5=
EXTT6=
EXTT7=
EXTT8=
EXTT9=
EXTT10=
EXTT11=
EXTT12=
EXTT13=
EXTT14=
EXTT15=
EXTT16=
EXTT17=
PLAYORDER=
